# xmcd
#
# Track frame offsets:
#	150
#	13245
#	27762
#	56735
#	69090
#	83157
#	95402
#	106100
#	117972
#	135855
#	147930
#	158007
#	179385
#	193457
#	208390
#	224262
#	238450
#	252785
#	266157
#	285692
#
# Disc length: 4105
#
# Revision: 2
# Processed by: cddbd v1.5.1PL0 Copyright (c) Steve Scherf et al.
# Submitted via: ExactAudioCopy v0.90b4
# Normalized: r1:DSETVAR1
#
DISCID=2a100714
DTITLE=Various Artist - A Century of Blues (2)
DYEAR=2001
DGENRE=Blues
TTITLE0=T-Bone Walker - My Baby Left Me
TTITLE1=Lowell Fulson - Night and Day
TTITLE2=Son House - Between Midnight and Day
TTITLE3=Clarence Gatemouth Brown - Guitar In My Hand
TTITLE4=Amos Milburn - Train Time Blues
TTITLE5=Guitar Slim and His Playboys - Standin' at the Station
TTITLE6=Joe Turner - Jumpin' Tonight
TTITLE7=Charles Brown - Cryin' and Driftin' Blues
TTITLE8=Sonny Terry and Brownie McGhee - Livin' With the Blues
TTITLE9=Big Joe Williams - Everybody's Gonna Miss Me When I'm Gone
TTITLE10=Floyd Dixon - Wino Blues
TTITLE11=Mississippi Fred McDowell - 61 Highway
TTITLE12=Jimmy Rogers - That's All Right
TTITLE13=The Animals - Boom Boom
TTITLE14=Manfred Mann - Smokestack Lightning
TTITLE15=Canned Heat - Rollin' and Tumblin'
TTITLE16=Freddie King - Dust My Broom
TTITLE17=Dr.Feelgood - Baby Jane
TTITLE18=Johnny Winter - Shame Shame Shame
TTITLE19=George Thorogood and the Destroyers - Bad to the Bone
EXTD=
EXTT0=
EXTT1=
EXTT2=
EXTT3=
EXTT4=
EXTT5=
EXTT6=
EXTT7=
EXTT8=
EXTT9=
EXTT10=
EXTT11=
EXTT12=
EXTT13=
EXTT14=
EXTT15=
EXTT16=
EXTT17=
EXTT18=
EXTT19=
PLAYORDER=
